<svg width="96" height="28" viewBox="0 0 96 28" fill="none" xmlns="http://www.w3.org/2000/svg">
<path d="M32.1554 0.310852H36.0432V27.5497H32.1554V0.310852Z" fill="#231F20"/>
<path d="M50.0993 26.9079C48.1938 26.2732 46.6968 25.4495 45.6083 24.4366L47.0452 21.4014C48.0815 22.3348 49.4099 23.0936 51.0304 23.6778C52.6323 24.2586 54.3234 24.555 56.0272 24.5537C58.2822 24.5537 59.967 24.171 61.0817 23.4057C62.1963 22.6403 62.7536 21.6221 62.7536 20.3509C62.7536 19.4175 62.449 18.6587 61.8399 18.0745C61.2307 17.4902 60.479 17.0422 59.5849 16.7305C58.6896 16.4191 57.4259 16.0689 55.7939 15.6799C53.7452 15.1871 52.0926 14.6942 50.8362 14.201C49.5909 13.7174 48.483 12.9358 47.6092 11.9246C46.714 10.9005 46.2663 9.51921 46.2663 7.78061C46.2663 6.32797 46.6487 5.01795 47.4134 3.85054C48.1781 2.68313 49.3381 1.74981 50.8933 1.05056C52.4488 0.350185 54.3801 9.74135e-07 56.6869 9.74135e-07C58.2884 -0.000520889 59.883 0.208639 61.4303 0.622157C62.9858 1.03768 64.3208 1.63501 65.435 2.41415L64.152 5.52718C63.0188 4.80431 61.7882 4.24727 60.4975 3.87294C59.2603 3.50579 57.9774 3.31593 56.6869 3.30903C54.4834 3.30903 52.8308 3.7111 51.7293 4.51526C50.6277 5.31942 50.0769 6.35709 50.0769 7.62829C50.0769 8.56162 50.388 9.32041 51.0102 9.90468C51.6325 10.4889 52.4035 10.9429 53.3234 11.2666C54.2433 11.5914 55.4941 11.9352 57.0758 12.2981C59.1234 12.7909 60.7694 13.2837 62.0139 13.7765C63.2476 14.262 64.3473 15.0358 65.2213 16.0333C66.1166 17.045 66.5642 18.4077 66.5642 20.1213C66.5744 21.5109 66.1685 22.8718 65.3986 24.0284C64.6209 25.2089 63.4415 26.1422 61.8606 26.8284C60.2796 27.5145 58.3356 27.8582 56.0283 27.8593C54.0136 27.8652 52.0112 27.5439 50.0993 26.9079Z" fill="#231F20"/>
<path d="M15.9809 18.4055C17.8987 17.7313 19.3761 16.6546 20.4132 15.1754C21.4502 13.6963 21.9687 11.9063 21.9687 9.80561C21.9687 6.84807 20.9578 4.52633 18.9359 2.84036C16.9141 1.1544 14.1415 0.311225 10.6181 0.310852H0V3.6966H10.4984C12.9604 3.6966 14.8398 4.22187 16.1365 5.27243C17.4332 6.32299 18.0811 7.83404 18.0804 9.80561C18.0804 11.7775 17.4324 13.2951 16.1365 14.3584C14.8405 15.4216 12.9612 15.9534 10.4984 15.9538H4.21178V19.2617H10.6181C11.0322 19.2617 11.6024 19.2358 12.3287 19.1839L18.1968 27.5497H22.4348L15.9809 18.4055Z" fill="#BE1E2D"/>
<path d="M95.3377 0.310852H76.1304V3.69099H95.3377V0.310852Z" fill="#231F20"/>
<path d="M92.2249 12.0215H76.1304V15.4016H92.2249V12.0215Z" fill="#231F20"/>
<path d="M95.3377 24.1694H76.1304V27.5496H95.3377V24.1694Z" fill="#231F20"/>
</svg>
