<svg width="135" height="229" viewBox="0 0 135 229" fill="none" xmlns="http://www.w3.org/2000/svg">
<path d="M86.6674 59.88C86.6674 49.2133 80.2674 43.88 67.4674 43.88C54.8807 43.88 48.5874 49.2133 48.5874 59.88V168.36C48.5874 179.027 54.8807 184.36 67.4674 184.36C80.2674 184.36 86.6674 179.027 86.6674 168.36V59.88ZM0.58739 57.32C0.58739 39.8267 6.24072 25.96 17.5474 15.72C28.8541 5.26666 45.4941 0.0399971 67.4674 0.0399971C89.4407 0.0399971 106.081 5.26666 117.387 15.72C128.907 25.96 134.667 39.8267 134.667 57.32V170.92C134.667 188.413 128.907 202.387 117.387 212.84C106.081 223.08 89.4407 228.2 67.4674 228.2C45.4941 228.2 28.8541 223.08 17.5474 212.84C6.24072 202.387 0.58739 188.413 0.58739 170.92V57.32Z" fill="white" fill-opacity="0.85"/>
</svg>
