<svg width="23" height="28" viewBox="0 0 23 28" fill="none" xmlns="http://www.w3.org/2000/svg">
<path d="M15.9809 18.0946C17.8987 17.4204 19.3761 16.3437 20.4132 14.8646C21.4502 13.3854 21.9687 11.5955 21.9687 9.49476C21.9687 6.53722 20.9578 4.21548 18.9359 2.52951C16.9141 0.843544 14.1415 0.000373332 10.6181 0H0V3.38574H10.4984C12.9604 3.38574 14.8398 3.91102 16.1365 4.96158C17.4332 6.01213 18.0811 7.52319 18.0804 9.49476C18.0804 11.4667 17.4324 12.9843 16.1365 14.0475C14.8405 15.1108 12.9612 15.6426 10.4984 15.643H4.21178V18.9509H10.6181C11.0322 18.9509 11.6024 18.9249 12.3287 18.873L18.1968 27.2388H22.4348L15.9809 18.0946Z" fill="#BE1E2D"/>
</svg>
