<svg width="138" height="222" viewBox="0 0 138 222" fill="none" xmlns="http://www.w3.org/2000/svg">
<path d="M48.4 141.769V221.769H0.400001V0.00928116H72.72C90.2133 0.00928116 103.867 4.16928 113.68 12.4893C123.493 20.8093 128.4 32.9693 128.4 48.9693V89.9293C128.4 115.529 119.653 131.529 102.16 137.929L137.04 221.769H84.24L54.48 141.769H48.4ZM48.4 40.9693V103.689H67.28C72.1867 103.689 75.6 102.623 77.52 100.489C79.44 98.3559 80.4 94.6226 80.4 89.2893V53.1293C80.4 48.4359 79.3333 45.2359 77.2 43.5293C75.0667 41.8226 71.76 40.9693 67.28 40.9693H48.4Z" fill="white" fill-opacity="0.9"/>
</svg>
